# xmcd
#
# Track frame offsets:
#	150
#	24566
#	40996
#	61477
#	76326
#	91056
#	119787
#	139430
#	154027
#	174878
#
# Disc length: 2477 seconds
#
# Revision: 0
# Processed by: cddbd v1.5.2PL0 Copyright (c) Steve Scherf et al.
# Submitted via: audiograbber 1.83.01
#
DISCID=8009ab0a
DTITLE=Katy Soljak - Morning Rain Blues
DYEAR=2007
DGENRE=Blues
TTITLE0=Adrienne
TTITLE1=Busking Blues
TTITLE2=Co-dependent Blues
TTITLE3=Denton
TTITLE4=If You Go Away
TTITLE5=I Need You
TTITLE6=Morning Rain Blues
TTITLE7=Nobody's Woman
TTITLE8=Raggle Taggle Gypsy Show
TTITLE9=Sweet Lovin Daddy
EXTD=Email: Katsun@xtra.co.nz
EXTT0=
EXTT1=
EXTT2=
EXTT3=
EXTT4=
EXTT5=
EXTT6=
EXTT7=
EXTT8=
EXTT9=
PLAYORDER=
